<?xml version="1.0" standalone="no"?>
<!DOCTYPE svg PUBLIC "-//W3C//DTD SVG 20010904//EN"
 "http://www.w3.org/TR/2001/REC-SVG-20010904/DTD/svg10.dtd">
<svg version="1.0" xmlns="http://www.w3.org/2000/svg"
 width="108.000000pt" height="65.000000pt" viewBox="0 0 108.000000 65.000000"
 preserveAspectRatio="xMidYMid meet">

<g transform="translate(0.000000,65.000000) scale(0.100000,-0.100000)"
fill="#7A86B8" stroke="none">
<path d="M490 589 c0 -5 -4 -8 -8 -5 -5 3 -6 -9 -4 -26 3 -18 1 -28 -5 -25 -5
4 -8 -7 -5 -25 3 -18 1 -28 -5 -25 -5 4 -8 -7 -5 -25 3 -18 1 -28 -5 -25 -5 4
-8 -7 -5 -25 3 -18 1 -28 -5 -25 -5 4 -8 -7 -5 -25 3 -19 1 -28 -5 -25 -6 4
-8 -4 -5 -20 3 -16 1 -24 -5 -20 -6 4 -10 -6 -9 -23 1 -22 6 -30 19 -30 10 0
15 -4 12 -10 -3 -5 -1 -10 4 -10 6 0 11 12 11 26 0 14 4 23 8 20 5 -3 6 9 4
26 -3 18 -1 28 5 25 5 -4 8 7 5 25 -3 18 -1 28 5 25 5 -4 8 7 5 25 -3 21 -1
29 7 24 7 -5 9 -1 5 9 -10 25 15 45 55 44 l36 -2 -40 -8 c-38 -7 -37 -7 13 -5
42 3 55 0 62 -15 13 -23 13 -62 0 -54 -6 4 -7 -6 -3 -26 4 -20 2 -30 -4 -26
-5 4 -8 -6 -5 -25 4 -24 2 -29 -8 -23 -10 6 -12 4 -7 -9 4 -10 7 -21 7 -26 0
-4 9 -10 20 -13 13 -3 20 0 20 10 0 8 4 12 8 9 5 -3 6 9 4 26 -3 21 -1 29 7
24 7 -5 9 3 4 25 -4 19 -2 30 3 26 6 -3 8 9 6 30 -3 22 -1 33 5 30 7 -4 8 5 4
26 -5 25 -14 34 -39 43 -18 5 -30 12 -28 15 2 2 -19 4 -47 4 -52 0 -52 0 -55
34 -2 20 1 31 6 27 6 -3 8 2 5 14 -5 20 -43 29 -43 9z"/>
<path d="M290 506 c-3 -3 -42 -6 -87 -7 l-82 -2 6 -30 c4 -18 2 -28 -3 -24 -6
3 -8 -10 -6 -31 3 -30 1 -34 -8 -22 -10 13 -11 12 -6 -3 9 -28 -5 -111 -16
-95 -7 10 -8 8 -4 -5 7 -21 -4 -108 -13 -103 -3 2 -6 -9 -6 -25 0 -23 4 -29
23 -29 16 0 22 6 22 21 0 11 3 18 8 16 4 -3 7 9 7 26 0 20 5 31 12 30 7 -2 13
2 13 7 0 6 25 10 55 10 80 0 118 19 144 72 38 80 20 178 -33 178 -8 0 -16 5
-18 11 -2 5 -6 8 -8 5z m-70 -47 c-30 -7 -28 -8 16 -4 27 2 56 0 63 -5 23 -14
23 -102 0 -139 -13 -21 -25 -31 -34 -27 -8 3 -15 1 -15 -5 0 -8 -16 -9 -47 -5
-33 4 -42 3 -28 -3 14 -7 16 -10 5 -10 -9 -1 -21 4 -28 11 -13 13 -17 52 -4
44 5 -3 6 9 4 26 -3 18 -1 28 5 25 5 -4 8 7 5 25 -3 21 -1 29 7 24 7 -5 9 -1
5 9 -9 24 15 45 50 44 l31 -2 -35 -8z"/>
<path d="M786 473 c4 -18 3 -33 -2 -33 -5 0 -10 -21 -10 -47 -1 -26 -6 -49
-11 -50 -5 -2 -8 -18 -6 -36 3 -24 2 -28 -6 -17 -8 11 -9 5 -4 -24 4 -25 3
-37 -4 -33 -6 4 -8 -3 -5 -18 2 -14 0 -25 -6 -25 -6 0 -8 -9 -5 -21 4 -12 0
-25 -8 -30 -10 -6 -5 -9 18 -9 28 0 32 4 38 32 11 57 16 68 26 63 5 -4 9 -1 9
5 0 8 21 11 64 8 36 -1 62 -1 60 1 -2 3 9 10 26 17 20 9 37 27 49 54 10 22 20
38 22 36 2 -2 2 23 -1 57 -5 59 -7 63 -40 79 -43 22 -190 26 -190 6 0 -9 -4
-8 -10 2 -7 11 -8 6 -4 -17z m94 -14 c-30 -7 -27 -7 16 -4 58 4 91 -12 81 -39
-4 -10 -3 -15 3 -11 6 3 10 -1 10 -10 0 -9 -4 -14 -9 -11 -4 3 -6 -5 -4 -17 5
-29 -33 -91 -52 -83 -8 3 -15 0 -15 -6 0 -7 -13 -8 -37 -5 -26 5 -33 3 -23 -3
12 -8 11 -10 -5 -10 -12 0 -26 5 -33 12 -14 14 -17 52 -3 44 4 -3 6 6 3 19 -2
14 0 25 5 25 5 0 7 14 5 31 -3 22 -1 30 7 25 7 -5 9 -1 5 9 -9 24 15 45 50 44
l31 -2 -35 -8z"/>
<path d="M188 223 c7 -3 16 -2 19 1 4 3 -2 6 -13 5 -11 0 -14 -3 -6 -6z"/>
<path d="M408 223 c7 -3 16 -2 19 1 4 3 -2 6 -13 5 -11 0 -14 -3 -6 -6z"/>
</g>
</svg>
